<svg xmlns="http://www.w3.org/2000/svg" viewBox="0 0 1230.92 615"><defs><style>.cls-1{fill:#666;}.cls-2{fill:#4d4d4d;}.cls-3{fill:none;stroke:#000;stroke-miterlimit:10;}</style></defs><title>bottombg</title><g id="Lag_2" data-name="Lag 2"><g id="Lag_1-2" data-name="Lag 1"><path class="cls-1" d="M.46,613.59C119.67,519.71,344,456.5,601.42,456.5c244,0,441.5-117,441.5-261.5,0-107.51,83.86-194.5,187.5-194.5V209.81h0c-49.07,21.5-81.8,60.36-81.8,104.78,0,91.12-179.35,164.84-401,164.84-277.67,0-513,56.2-596.27,134.26ZM1156.69,181.24c6.43,0,6.44-10,0-10S1150.24,181.24,1156.69,181.24Z"/><path class="cls-2" d="M1230.42,209.82V614.5l-1079.07-.8C234.64,535.64,470,479.44,747.62,479.44c221.65,0,401-73.72,401-164.84C1148.62,270.18,1181.35,231.32,1230.42,209.82Z"/><path class="cls-1" d="M1156.69,171.24c6.44,0,6.43,10,0,10S1150.25,171.24,1156.69,171.24Z"/><path class="cls-3" d="M.31,613.71l.15-.12C119.67,519.71,344,456.5,601.42,456.5"/><path class="cls-3" d="M1042.92,195c0,144.54-197.47,261.5-441.5,261.5"/><path class="cls-3" d="M1042.92,195c0-107.51,83.86-194.5,187.5-194.5"/><path class="cls-3" d="M151.32,613.73l0,0C234.64,535.64,470,479.44,747.62,479.44"/><path class="cls-3" d="M1148.62,314.6c0,91.12-179.35,164.84-401,164.84"/><path class="cls-3" d="M1230.42,209.81l.21-.09"/><path class="cls-3" d="M1148.62,314.6c0-44.42,32.73-83.28,81.8-104.78"/><polyline class="cls-3" points="1230.42 0.5 1230.42 209.81 1230.42 209.82 1230.42 614.5"/><polyline class="cls-3" points="0.31 613.59 0.46 613.59 151.35 613.7 1230.42 614.5"/></g></g></svg>